<mxfile host="Electron" agent="Mozilla/5.0 (Windows NT 10.0; Win64; x64) AppleWebKit/537.36 (KHTML, like Gecko) draw.io/24.7.17 Chrome/128.0.6613.36 Electron/32.0.1 Safari/537.36" version="24.7.17">
  <diagram id="iSdH8Bf3Pxa846-qju2B" name="USER_CASE">
    <mxGraphModel dx="1036" dy="606" grid="1" gridSize="10" guides="1" tooltips="1" connect="1" arrows="1" fold="1" page="1" pageScale="1" pageWidth="1169" pageHeight="827" math="0" shadow="0">
      <root>
        <mxCell id="0" />
        <mxCell id="1" parent="0" />
        <mxCell id="7Kad4Xk6t2y7_XiCvmx0-1" value="" style="shape=table;startSize=0;container=1;collapsible=0;childLayout=tableLayout;" vertex="1" parent="1">
          <mxGeometry x="80" y="40" width="680" height="950" as="geometry" />
        </mxCell>
        <mxCell id="7Kad4Xk6t2y7_XiCvmx0-2" value="" style="shape=tableRow;horizontal=0;startSize=0;swimlaneHead=0;swimlaneBody=0;strokeColor=inherit;top=0;left=0;bottom=0;right=0;collapsible=0;dropTarget=0;fillColor=none;points=[[0,0.5],[1,0.5]];portConstraint=eastwest;" vertex="1" parent="7Kad4Xk6t2y7_XiCvmx0-1">
          <mxGeometry width="680" height="45" as="geometry" />
        </mxCell>
        <mxCell id="7Kad4Xk6t2y7_XiCvmx0-3" value="&lt;b&gt;Заголовок&lt;/b&gt;" style="shape=partialRectangle;html=1;whiteSpace=wrap;connectable=0;strokeColor=inherit;overflow=hidden;fillColor=none;top=0;left=0;bottom=0;right=0;pointerEvents=1;" vertex="1" parent="7Kad4Xk6t2y7_XiCvmx0-2">
          <mxGeometry width="181" height="45" as="geometry">
            <mxRectangle width="181" height="45" as="alternateBounds" />
          </mxGeometry>
        </mxCell>
        <mxCell id="7Kad4Xk6t2y7_XiCvmx0-4" value="Отслеживание доставки товаров по Дате доставки в определенную дату вприложении Wildberries" style="shape=partialRectangle;html=1;whiteSpace=wrap;connectable=0;strokeColor=inherit;overflow=hidden;fillColor=none;top=0;left=0;bottom=0;right=0;pointerEvents=1;spacingLeft=7;spacingRight=7;" vertex="1" parent="7Kad4Xk6t2y7_XiCvmx0-2">
          <mxGeometry x="181" width="499" height="45" as="geometry">
            <mxRectangle width="499" height="45" as="alternateBounds" />
          </mxGeometry>
        </mxCell>
        <mxCell id="7Kad4Xk6t2y7_XiCvmx0-5" value="" style="shape=tableRow;horizontal=0;startSize=0;swimlaneHead=0;swimlaneBody=0;strokeColor=inherit;top=0;left=0;bottom=0;right=0;collapsible=0;dropTarget=0;fillColor=none;points=[[0,0.5],[1,0.5]];portConstraint=eastwest;" vertex="1" parent="7Kad4Xk6t2y7_XiCvmx0-1">
          <mxGeometry y="45" width="680" height="46" as="geometry" />
        </mxCell>
        <mxCell id="7Kad4Xk6t2y7_XiCvmx0-6" value="&lt;b&gt;Акторы&lt;/b&gt;" style="shape=partialRectangle;html=1;whiteSpace=wrap;connectable=0;strokeColor=inherit;overflow=hidden;fillColor=none;top=0;left=0;bottom=0;right=0;pointerEvents=1;" vertex="1" parent="7Kad4Xk6t2y7_XiCvmx0-5">
          <mxGeometry width="181" height="46" as="geometry">
            <mxRectangle width="181" height="46" as="alternateBounds" />
          </mxGeometry>
        </mxCell>
        <mxCell id="7Kad4Xk6t2y7_XiCvmx0-7" value="Клиент" style="shape=partialRectangle;html=1;whiteSpace=wrap;connectable=0;strokeColor=inherit;overflow=hidden;fillColor=none;top=0;left=0;bottom=0;right=0;pointerEvents=1;spacingLeft=7;spacingRight=7;" vertex="1" parent="7Kad4Xk6t2y7_XiCvmx0-5">
          <mxGeometry x="181" width="499" height="46" as="geometry">
            <mxRectangle width="499" height="46" as="alternateBounds" />
          </mxGeometry>
        </mxCell>
        <mxCell id="7Kad4Xk6t2y7_XiCvmx0-8" value="" style="shape=tableRow;horizontal=0;startSize=0;swimlaneHead=0;swimlaneBody=0;strokeColor=inherit;top=0;left=0;bottom=0;right=0;collapsible=0;dropTarget=0;fillColor=none;points=[[0,0.5],[1,0.5]];portConstraint=eastwest;" vertex="1" parent="7Kad4Xk6t2y7_XiCvmx0-1">
          <mxGeometry y="91" width="680" height="45" as="geometry" />
        </mxCell>
        <mxCell id="7Kad4Xk6t2y7_XiCvmx0-9" value="&lt;b&gt;Предусловие&lt;/b&gt;" style="shape=partialRectangle;html=1;whiteSpace=wrap;connectable=0;strokeColor=inherit;overflow=hidden;fillColor=none;top=0;left=0;bottom=0;right=0;pointerEvents=1;" vertex="1" parent="7Kad4Xk6t2y7_XiCvmx0-8">
          <mxGeometry width="181" height="45" as="geometry">
            <mxRectangle width="181" height="45" as="alternateBounds" />
          </mxGeometry>
        </mxCell>
        <mxCell id="7Kad4Xk6t2y7_XiCvmx0-10" value="Клиент зарегистрирован и авторизован в приложении Wildberries и ранее оформил заказ" style="shape=partialRectangle;html=1;whiteSpace=wrap;connectable=0;strokeColor=inherit;overflow=hidden;fillColor=none;top=0;left=0;bottom=0;right=0;pointerEvents=1;spacingLeft=7;spacingRight=7;" vertex="1" parent="7Kad4Xk6t2y7_XiCvmx0-8">
          <mxGeometry x="181" width="499" height="45" as="geometry">
            <mxRectangle width="499" height="45" as="alternateBounds" />
          </mxGeometry>
        </mxCell>
        <mxCell id="7Kad4Xk6t2y7_XiCvmx0-11" value="" style="shape=tableRow;horizontal=0;startSize=0;swimlaneHead=0;swimlaneBody=0;strokeColor=inherit;top=0;left=0;bottom=0;right=0;collapsible=0;dropTarget=0;fillColor=none;points=[[0,0.5],[1,0.5]];portConstraint=eastwest;" vertex="1" parent="7Kad4Xk6t2y7_XiCvmx0-1">
          <mxGeometry y="136" width="680" height="47" as="geometry" />
        </mxCell>
        <mxCell id="7Kad4Xk6t2y7_XiCvmx0-12" value="&lt;b&gt;Ограничения&lt;/b&gt;" style="shape=partialRectangle;html=1;whiteSpace=wrap;connectable=0;strokeColor=inherit;overflow=hidden;fillColor=none;top=0;left=0;bottom=0;right=0;pointerEvents=1;" vertex="1" parent="7Kad4Xk6t2y7_XiCvmx0-11">
          <mxGeometry width="181" height="47" as="geometry">
            <mxRectangle width="181" height="47" as="alternateBounds" />
          </mxGeometry>
        </mxCell>
        <mxCell id="7Kad4Xk6t2y7_XiCvmx0-13" value="" style="shape=partialRectangle;html=1;whiteSpace=wrap;connectable=0;strokeColor=inherit;overflow=hidden;fillColor=none;top=0;left=0;bottom=0;right=0;pointerEvents=1;spacingLeft=7;spacingRight=7;" vertex="1" parent="7Kad4Xk6t2y7_XiCvmx0-11">
          <mxGeometry x="181" width="499" height="47" as="geometry">
            <mxRectangle width="499" height="47" as="alternateBounds" />
          </mxGeometry>
        </mxCell>
        <mxCell id="7Kad4Xk6t2y7_XiCvmx0-14" value="" style="shape=tableRow;horizontal=0;startSize=0;swimlaneHead=0;swimlaneBody=0;strokeColor=inherit;top=0;left=0;bottom=0;right=0;collapsible=0;dropTarget=0;fillColor=none;points=[[0,0.5],[1,0.5]];portConstraint=eastwest;" vertex="1" parent="7Kad4Xk6t2y7_XiCvmx0-1">
          <mxGeometry y="183" width="680" height="45" as="geometry" />
        </mxCell>
        <mxCell id="7Kad4Xk6t2y7_XiCvmx0-15" value="&lt;b&gt;Триггер&lt;/b&gt;" style="shape=partialRectangle;html=1;whiteSpace=wrap;connectable=0;strokeColor=inherit;overflow=hidden;fillColor=none;top=0;left=0;bottom=0;right=0;pointerEvents=1;" vertex="1" parent="7Kad4Xk6t2y7_XiCvmx0-14">
          <mxGeometry width="181" height="45" as="geometry">
            <mxRectangle width="181" height="45" as="alternateBounds" />
          </mxGeometry>
        </mxCell>
        <mxCell id="7Kad4Xk6t2y7_XiCvmx0-16" value="Клиент нажимает кнопку &quot;Меню профиля&quot; в приложении Widberries&lt;div&gt;(экран №1)&lt;/div&gt;" style="shape=partialRectangle;html=1;whiteSpace=wrap;connectable=0;strokeColor=inherit;overflow=hidden;fillColor=none;top=0;left=0;bottom=0;right=0;pointerEvents=1;spacingLeft=7;spacingRight=7;" vertex="1" parent="7Kad4Xk6t2y7_XiCvmx0-14">
          <mxGeometry x="181" width="499" height="45" as="geometry">
            <mxRectangle width="499" height="45" as="alternateBounds" />
          </mxGeometry>
        </mxCell>
        <mxCell id="7Kad4Xk6t2y7_XiCvmx0-17" value="" style="shape=tableRow;horizontal=0;startSize=0;swimlaneHead=0;swimlaneBody=0;strokeColor=inherit;top=0;left=0;bottom=0;right=0;collapsible=0;dropTarget=0;fillColor=none;points=[[0,0.5],[1,0.5]];portConstraint=eastwest;" vertex="1" parent="7Kad4Xk6t2y7_XiCvmx0-1">
          <mxGeometry y="228" width="680" height="422" as="geometry" />
        </mxCell>
        <mxCell id="7Kad4Xk6t2y7_XiCvmx0-18" value="&lt;b&gt;Основной сценарий&lt;/b&gt;" style="shape=partialRectangle;html=1;whiteSpace=wrap;connectable=0;strokeColor=inherit;overflow=hidden;fillColor=none;top=0;left=0;bottom=0;right=0;pointerEvents=1;" vertex="1" parent="7Kad4Xk6t2y7_XiCvmx0-17">
          <mxGeometry width="181" height="422" as="geometry">
            <mxRectangle width="181" height="422" as="alternateBounds" />
          </mxGeometry>
        </mxCell>
        <mxCell id="7Kad4Xk6t2y7_XiCvmx0-19" value="&lt;ol style=&quot;text-align: left;&quot;&gt;&lt;li&gt;Система отображает &quot;Меню профиля&quot; клиента&lt;/li&gt;&lt;li&gt;Клиент нажимает &quot;Доставки по дате&quot; (экран №1)&lt;/li&gt;&lt;li&gt;Система группирует и отображает заказанные товары по дате доставки с возможностью прокрутки вверх-вних, даты отображены в порядке возрастания(экран №2)&lt;/li&gt;&lt;li&gt;Клиент выбирает дату доставки и нажимает на &quot;Дата доставки: ...&quot; на экране №2&lt;/li&gt;&lt;li&gt;Система отображает экран с выбранной датой доставкой, где отображаются все заказанные товары, которые привезут в выбранную дату (экран №3)&lt;/li&gt;&lt;li&gt;Клиент нажимает &quot;Статус доставки&quot; на экране №3 у выбранного товара&lt;/li&gt;&lt;li&gt;Система отображает всплывающий экран со статусом доставки (экран №4)&lt;/li&gt;&lt;li&gt;Клиент нажимает на стрелочку &quot;Назад&quot; и попадает на экран №3&lt;/li&gt;&lt;li&gt;Система отображает экран с выбранной датой доставкой, где отображаются все заказанные товары, которые привезут в выбранную дату (экран №3)&lt;/li&gt;&lt;li&gt;Клиент нажимает на &quot;QR-код для получения&quot; на экране №3&lt;/li&gt;&lt;li&gt;Система отображает QR-код для получения, товар, дату доставки, адрес пункта выдачи и до какого забрать (экран №8)&lt;b style=&quot;text-align: center;&quot;&gt;&lt;br&gt;&lt;/b&gt;&lt;/li&gt;&lt;/ol&gt;&lt;span style=&quot;background-color: initial;&quot;&gt;&lt;div style=&quot;text-align: left;&quot;&gt;&lt;b style=&quot;font-weight: bold; background-color: initial;&quot;&gt;&lt;span style=&quot;white-space: pre;&quot;&gt;&#x9;&lt;/span&gt;&lt;/b&gt;&lt;b style=&quot;font-weight: bold; background-color: initial; text-align: center;&quot;&gt;Критерий успеха: &lt;/b&gt;&lt;span style=&quot;background-color: initial; text-align: center;&quot;&gt;клиент знает какие товары привезут в определенную дату&lt;/span&gt;&lt;/div&gt;&lt;/span&gt;" style="shape=partialRectangle;html=1;whiteSpace=wrap;connectable=0;strokeColor=inherit;overflow=hidden;fillColor=none;top=0;left=0;bottom=0;right=0;pointerEvents=1;spacingLeft=7;spacingRight=7;" vertex="1" parent="7Kad4Xk6t2y7_XiCvmx0-17">
          <mxGeometry x="181" width="499" height="422" as="geometry">
            <mxRectangle width="499" height="422" as="alternateBounds" />
          </mxGeometry>
        </mxCell>
        <mxCell id="7Kad4Xk6t2y7_XiCvmx0-20" value="" style="shape=tableRow;horizontal=0;startSize=0;swimlaneHead=0;swimlaneBody=0;strokeColor=inherit;top=0;left=0;bottom=0;right=0;collapsible=0;dropTarget=0;fillColor=none;points=[[0,0.5],[1,0.5]];portConstraint=eastwest;" vertex="1" parent="7Kad4Xk6t2y7_XiCvmx0-1">
          <mxGeometry y="650" width="680" height="186" as="geometry" />
        </mxCell>
        <mxCell id="7Kad4Xk6t2y7_XiCvmx0-21" value="&lt;b&gt;Альтернативный сценарий&lt;/b&gt;" style="shape=partialRectangle;html=1;whiteSpace=wrap;connectable=0;strokeColor=inherit;overflow=hidden;fillColor=none;top=0;left=0;bottom=0;right=0;pointerEvents=1;" vertex="1" parent="7Kad4Xk6t2y7_XiCvmx0-20">
          <mxGeometry width="181" height="186" as="geometry">
            <mxRectangle width="181" height="186" as="alternateBounds" />
          </mxGeometry>
        </mxCell>
        <mxCell id="7Kad4Xk6t2y7_XiCvmx0-22" value="4а. Клиент нажимает на окно товара &quot;Т...&quot; с зеленой обводкой на экране №2&lt;div&gt;5а.&amp;nbsp;&lt;span style=&quot;background-color: initial;&quot;&gt;Система отображает всплывающий экран со статусом доставки (экран №4)&lt;/span&gt;&lt;/div&gt;&lt;div&gt;&lt;span style=&quot;background-color: initial;&quot;&gt;6а. Клиент нажимает на стрелочку &quot;Назад&quot; и попадает на экран №2&lt;/span&gt;&lt;/div&gt;&lt;div&gt;&lt;span style=&quot;background-color: initial;&quot;&gt;7а.&amp;nbsp; Система отображает экран с заказанными товарами по датам доставки (экран №2)&lt;/span&gt;&lt;/div&gt;&lt;div&gt;&lt;span style=&quot;background-color: initial;&quot;&gt;8а. Клиент нажимает на &quot;QR-код для получения&quot; на экране №2&lt;/span&gt;&lt;/div&gt;&lt;div&gt;&lt;span style=&quot;background-color: initial;&quot;&gt;9а. Система отображает QR-код для получения, товар, дату доставки, адрес пункта выдачи и до какого забрать (экран №8)&lt;/span&gt;&lt;/div&gt;" style="shape=partialRectangle;html=1;whiteSpace=wrap;connectable=0;strokeColor=inherit;overflow=hidden;fillColor=none;top=0;left=0;bottom=0;right=0;pointerEvents=1;align=left;spacingLeft=7;spacingRight=7;" vertex="1" parent="7Kad4Xk6t2y7_XiCvmx0-20">
          <mxGeometry x="181" width="499" height="186" as="geometry">
            <mxRectangle width="499" height="186" as="alternateBounds" />
          </mxGeometry>
        </mxCell>
        <mxCell id="7Kad4Xk6t2y7_XiCvmx0-23" value="" style="shape=tableRow;horizontal=0;startSize=0;swimlaneHead=0;swimlaneBody=0;strokeColor=inherit;top=0;left=0;bottom=0;right=0;collapsible=0;dropTarget=0;fillColor=none;points=[[0,0.5],[1,0.5]];portConstraint=eastwest;" vertex="1" parent="7Kad4Xk6t2y7_XiCvmx0-1">
          <mxGeometry y="836" width="680" height="114" as="geometry" />
        </mxCell>
        <mxCell id="7Kad4Xk6t2y7_XiCvmx0-24" value="&lt;b&gt;Исключительный сценарий&lt;/b&gt;" style="shape=partialRectangle;html=1;whiteSpace=wrap;connectable=0;strokeColor=inherit;overflow=hidden;fillColor=none;top=0;left=0;bottom=0;right=0;pointerEvents=1;" vertex="1" parent="7Kad4Xk6t2y7_XiCvmx0-23">
          <mxGeometry width="181" height="114" as="geometry">
            <mxRectangle width="181" height="114" as="alternateBounds" />
          </mxGeometry>
        </mxCell>
        <mxCell id="7Kad4Xk6t2y7_XiCvmx0-25" value="&lt;div style=&quot;text-align: left;&quot;&gt;&lt;span style=&quot;background-color: initial;&quot;&gt;6b. Клиент нажимает &quot;Отмена&quot; на экране №3&lt;/span&gt;&lt;/div&gt;&lt;div style=&quot;text-align: left;&quot;&gt;&lt;span style=&quot;background-color: initial;&quot;&gt;7b. Система отображает всплывающее окно для подтверждения отмены (экран №6)&lt;/span&gt;&lt;/div&gt;&lt;div style=&quot;text-align: left;&quot;&gt;&lt;span style=&quot;background-color: initial;&quot;&gt;8b. Клиент нажимает кнопку &quot;Отменить&quot; на экране №6&lt;/span&gt;&lt;/div&gt;&lt;div style=&quot;text-align: left;&quot;&gt;&lt;span style=&quot;background-color: initial;&quot;&gt;9b Система отображает преобразованный экран №2 на экран №7, где отсутствует отмененный клиентом товар.&lt;/span&gt;&lt;/div&gt;&lt;div style=&quot;text-align: left;&quot;&gt;&lt;b style=&quot;background-color: initial;&quot;&gt;&lt;span style=&quot;white-space: pre;&quot;&gt;&#x9;&lt;/span&gt;Результат&lt;/b&gt;&lt;b style=&quot;background-color: initial;&quot;&gt;: &lt;/b&gt;&lt;span style=&quot;background-color: initial;&quot;&gt;Доставка отмененного товара не состоится.&lt;/span&gt;&lt;span style=&quot;text-align: left;&quot;&gt;&lt;br&gt;&lt;/span&gt;&lt;/div&gt;" style="shape=partialRectangle;html=1;whiteSpace=wrap;connectable=0;strokeColor=inherit;overflow=hidden;fillColor=none;top=0;left=0;bottom=0;right=0;pointerEvents=1;spacingLeft=7;spacingRight=7;" vertex="1" parent="7Kad4Xk6t2y7_XiCvmx0-23">
          <mxGeometry x="181" width="499" height="114" as="geometry">
            <mxRectangle width="499" height="114" as="alternateBounds" />
          </mxGeometry>
        </mxCell>
      </root>
    </mxGraphModel>
  </diagram>
</mxfile>
